<svg width="50" height="50" viewBox="0 0 50 50" fill="none" xmlns="http://www.w3.org/2000/svg">
    <path d="M25.0001 13.0208C25.4145 13.0208 25.8119 13.1854 26.1049 13.4784C26.398 13.7714 26.5626 14.1689 26.5626 14.5833V27.0833C26.5626 27.4977 26.398 27.8951 26.1049 28.1881C25.8119 28.4811 25.4145 28.6458 25.0001 28.6458C24.5857 28.6458 24.1883 28.4811 23.8952 28.1881C23.6022 27.8951 23.4376 27.4977 23.4376 27.0833V14.5833C23.4376 14.1689 23.6022 13.7714 23.8952 13.4784C24.1883 13.1854 24.5857 13.0208 25.0001 13.0208ZM25.0001 35.4166C25.5526 35.4166 26.0825 35.1971 26.4732 34.8064C26.8639 34.4157 27.0834 33.8858 27.0834 33.3333C27.0834 32.7807 26.8639 32.2508 26.4732 31.8601C26.0825 31.4694 25.5526 31.2499 25.0001 31.2499C24.4475 31.2499 23.9176 31.4694 23.5269 31.8601C23.1362 32.2508 22.9167 32.7807 22.9167 33.3333C22.9167 33.8858 23.1362 34.4157 23.5269 34.8064C23.9176 35.1971 24.4475 35.4166 25.0001 35.4166Z" fill="#DA7BBB"/>
    <path fill-rule="evenodd" clip-rule="evenodd" d="M2.60425 25.0001C2.60425 12.6313 12.6313 2.60425 25.0001 2.60425C37.3688 2.60425 47.3959 12.6313 47.3959 25.0001C47.3959 37.3688 37.3688 47.3959 25.0001 47.3959C12.6313 47.3959 2.60425 37.3688 2.60425 25.0001ZM25.0001 5.72925C19.8891 5.72925 14.9875 7.75956 11.3735 11.3735C7.75956 14.9875 5.72925 19.8891 5.72925 25.0001C5.72925 30.111 7.75956 35.0126 11.3735 38.6266C14.9875 42.2406 19.8891 44.2709 25.0001 44.2709C30.111 44.2709 35.0126 42.2406 38.6266 38.6266C42.2406 35.0126 44.2709 30.111 44.2709 25.0001C44.2709 19.8891 42.2406 14.9875 38.6266 11.3735C35.0126 7.75956 30.111 5.72925 25.0001 5.72925Z" fill="#DA7BBB"/>
    </svg>
    