<svg width="24" height="22" viewBox="0 0 24 22" fill="none" xmlns="http://www.w3.org/2000/svg">
<path d="M20.7701 5.14686C20.7698 5.64221 20.555 6.1172 20.173 6.46758C19.791 6.81796 19.273 7.01508 18.7326 7.0157H18.0935V16.7374C18.0928 17.2325 17.8779 17.7072 17.496 18.0574C17.114 18.4075 16.5962 18.6045 16.056 18.6051H5.26735C4.99971 18.6051 4.73468 18.5567 4.4874 18.4629C4.24013 18.369 4.01545 18.2313 3.8262 18.0579C3.63694 17.8844 3.48681 17.6784 3.38439 17.4518C3.28197 17.2251 3.22925 16.9821 3.22925 16.7368C3.22925 16.4915 3.28197 16.2485 3.38439 16.0218C3.48681 15.7952 3.63694 15.5892 3.8262 15.4157C4.01545 15.2423 4.24013 15.1046 4.4874 15.0108C4.73468 14.9169 4.99971 14.8685 5.26735 14.8685H5.90525V5.14686C5.90525 4.6511 6.12 4.17563 6.5023 3.82498C6.8846 3.47432 7.40316 3.27716 7.94398 3.27686H18.7314C19.272 3.27716 19.7903 3.47416 20.1726 3.82457C20.5549 4.17497 20.7698 4.65014 20.7701 5.1457V5.14686ZM5.26735 17.3221H14.1183C13.9816 16.9424 13.9816 16.5324 14.1183 16.1526H5.26988C5.1007 16.1526 4.93845 16.2143 4.81882 16.3239C4.69919 16.4336 4.63198 16.5823 4.63198 16.7374C4.63198 16.8925 4.69919 17.0412 4.81882 17.1509C4.93845 17.2605 5.1007 17.3221 5.26988 17.3221H5.26735ZM16.6926 5.14686C16.6923 4.94827 16.7264 4.7509 16.7937 4.56212H7.94525C7.80324 4.56189 7.66529 4.60554 7.55367 4.68601L7.55114 4.68717C7.47484 4.74158 7.41318 4.81132 7.37091 4.89102C7.32864 4.97071 7.3069 5.05824 7.30735 5.14686V14.8685H15.312C15.4864 14.8667 15.6564 14.9192 15.7941 15.0174C15.9318 15.1157 16.029 15.2538 16.0699 15.4093C16.1179 15.5581 16.113 15.717 16.056 15.8631C15.999 16.0092 15.8929 16.1349 15.7528 16.2221C15.6539 16.2714 15.5709 16.3438 15.5123 16.432C15.4538 16.5201 15.4218 16.621 15.4195 16.7242C15.4172 16.8274 15.4448 16.9293 15.4994 17.0196C15.554 17.1099 15.6337 17.1853 15.7305 17.2382C15.8272 17.291 15.9374 17.3195 16.05 17.3207C16.1627 17.3218 16.2736 17.2957 16.3716 17.2448C16.4696 17.1939 16.5511 17.1202 16.608 17.0311C16.6648 16.9419 16.6949 16.8406 16.6951 16.7374L16.6926 5.14686ZM15.6063 6.81191H8.33051V8.0937H15.6063V6.81191ZM15.6063 9.42875H8.33051V10.7105H15.6063V9.42875ZM15.6063 12.0456H8.33051V13.3285H15.6063V12.0456ZM19.3692 5.14686C19.3689 4.99187 19.3016 4.84332 19.182 4.73372C19.0625 4.62413 18.9004 4.56242 18.7314 4.56212C18.5893 4.56152 18.4512 4.60521 18.3398 4.68601H18.3372C18.2606 4.74048 18.1987 4.81037 18.1562 4.89027C18.1137 4.97018 18.0918 5.05796 18.0922 5.14686V5.73159H18.7314C18.9004 5.73129 19.0625 5.66958 19.182 5.55999C19.3016 5.4504 19.3689 5.30184 19.3692 5.14686Z" fill="white"/>
</svg>
