<svg width="25" height="25" viewBox="0 0 25 25" fill="none" xmlns="http://www.w3.org/2000/svg">
<path d="M12.5977 1.06885C12.5732 1.06885 12.5391 1.06885 12.5098 1.07471C12.2852 1.11621 12.0166 1.32373 11.8408 1.79785C11.6553 2.27148 11.6162 2.94678 11.7773 3.66992C11.9434 4.38428 12.2852 5 12.666 5.37598C13.0371 5.75195 13.374 5.85449 13.5986 5.81543C13.833 5.78125 14.0918 5.56641 14.2676 5.09766C14.4531 4.62695 14.502 3.94238 14.3359 3.2251C14.165 2.50244 13.8281 1.89258 13.4473 1.51904C13.125 1.18701 12.8271 1.06885 12.5977 1.06885ZM18.2324 7.39258C17.6953 7.40723 17.0166 7.54883 16.3574 7.82715C15.5957 8.15918 15.0098 8.60352 14.6875 9.02344C14.3652 9.42871 14.3359 9.73633 14.4385 9.91699C14.5459 10.0977 14.8438 10.2686 15.415 10.293C15.9863 10.3271 16.7578 10.1855 17.5146 9.86328C18.2715 9.53613 18.8672 9.08691 19.1895 8.67676C19.5117 8.27148 19.5361 7.9541 19.4336 7.77344C19.3311 7.58789 19.0283 7.42676 18.457 7.40723C18.3789 7.39258 18.3105 7.39258 18.2324 7.39258ZM11.5771 11.9287C11.2549 11.9336 10.9619 11.9727 10.6982 12.041C10.1221 12.1875 9.79004 12.4512 9.68262 12.7686C9.56055 13.0859 9.68262 13.4668 10.0635 13.877C10.4639 14.2773 11.123 14.6631 11.9434 14.8779C12.7588 15.0928 13.5449 15.0879 14.1309 14.9316C14.7217 14.7803 15.0537 14.5117 15.1611 14.1992C15.2734 13.8818 15.1611 13.5059 14.7656 13.0908C14.3799 12.6904 13.7207 12.3047 12.9004 12.0947C12.4365 11.9727 11.9824 11.9238 11.5771 11.9287ZM19.4238 14.7656L16.4062 16.1963C16.6113 16.2061 17.124 16.2207 17.124 16.2207L17.4463 16.6455L20.1172 15.2539L19.4238 14.7656ZM16.7627 14.7705L13.96 16.0986C14.2285 16.1133 14.8633 16.123 15.1172 16.1377L17.5488 14.9854L16.7627 14.7705ZM21.2842 15.2979L17.8418 17.124L18.5498 18.0371L22.1875 15.8594L21.2842 15.2979ZM7.6709 15.7422C7.52305 15.7419 7.37563 15.7583 7.23145 15.791C3.74023 16.5967 1.67969 16.665 1.06934 16.665H0.878906V21.9141C0.878906 21.9141 1.44531 21.8311 2.3877 21.8262C4.20898 21.8262 7.41699 22.1387 10.542 23.9648C10.708 24.0674 11.0645 24.1064 11.5088 24.1064C12.6953 24.1064 14.4971 23.8232 14.9121 23.667C19.0918 22.0996 24.1211 17.7979 24.1211 17.7979L22.5342 16.4111C22.5342 16.4111 18.6377 18.8965 18.1445 19.1357C13.6963 21.3184 10.0928 19.9561 10.0928 19.9561C10.0928 19.9561 15.9473 20.1025 17.8271 18.623L16.7236 16.9629C16.7236 16.9629 12.6807 16.8506 11.2402 16.6602C10.4883 16.5625 8.86231 15.7422 7.6709 15.7422Z" fill="#EBEBEB"/>
</svg>
