<svg width="25" height="23" viewBox="0 0 25 23" fill="none" xmlns="http://www.w3.org/2000/svg">
<path d="M6.25 0C4.53125 0 3 0.77566 1.84375 1.98974C0.71875 3.20381 0 4.8563 0 6.74487C0 8.59971 0.71875 10.2522 1.84375 11.5L12.5 23L23.1562 11.5C24.2812 10.2859 25 8.63343 25 6.74487C25 4.89003 24.2812 3.23754 23.1562 1.98974C22.0312 0.77566 20.5 0 18.75 0C17.0312 0 15.5 0.77566 14.3438 1.98974C13.2188 3.20381 12.5 4.8563 12.5 6.74487C12.5 4.89003 11.7812 3.23754 10.6562 1.98974C9.53125 0.77566 8 0 6.25 0Z" fill="#777A89"/>
</svg>
