<svg width="29" height="29" viewBox="0 0 29 29" fill="none" xmlns="http://www.w3.org/2000/svg">
<g clip-path="url(#clip0_1_31)">
<mask id="mask0_1_31" style="mask-type:luminance" maskUnits="userSpaceOnUse" x="0" y="0" width="29" height="29">
<path d="M28.4645 11.8636H14.9531V17.4659H22.7304C22.0054 21.025 18.9736 23.0682 14.9531 23.0682C10.2077 23.0682 6.38495 19.2455 6.38495 14.5C6.38495 9.75455 10.2077 5.93182 14.9531 5.93182C16.9963 5.93182 18.8418 6.65682 20.2918 7.84318L24.51 3.625C21.9395 1.38409 18.644 0 14.9531 0C6.91222 0 0.453125 6.45909 0.453125 14.5C0.453125 22.5409 6.91222 29 14.9531 29C22.2031 29 28.794 23.7273 28.794 14.5C28.794 13.6432 28.6622 12.7205 28.4645 11.8636Z" fill="white"/>
</mask>
<g mask="url(#mask0_1_31)">
<path d="M-0.865051 23.0683V5.93188L10.3395 14.5001L-0.865051 23.0683Z" fill="#FBBC05"/>
</g>
<mask id="mask1_1_31" style="mask-type:luminance" maskUnits="userSpaceOnUse" x="0" y="0" width="29" height="29">
<path d="M28.4645 11.8636H14.9531V17.4659H22.7304C22.0054 21.025 18.9736 23.0682 14.9531 23.0682C10.2077 23.0682 6.38495 19.2455 6.38495 14.5C6.38495 9.75455 10.2077 5.93182 14.9531 5.93182C16.9963 5.93182 18.8418 6.65682 20.2918 7.84318L24.51 3.625C21.9395 1.38409 18.644 0 14.9531 0C6.91222 0 0.453125 6.45909 0.453125 14.5C0.453125 22.5409 6.91222 29 14.9531 29C22.2031 29 28.794 23.7273 28.794 14.5C28.794 13.6432 28.6622 12.7205 28.4645 11.8636Z" fill="white"/>
</mask>
<g mask="url(#mask1_1_31)">
<path d="M-0.865051 5.93177L10.3395 14.5L14.9531 10.4795L30.7713 7.90904V-1.31824H-0.865051V5.93177Z" fill="#EA4335"/>
</g>
<mask id="mask2_1_31" style="mask-type:luminance" maskUnits="userSpaceOnUse" x="0" y="0" width="29" height="29">
<path d="M28.4645 11.8636H14.9531V17.4659H22.7304C22.0054 21.025 18.9736 23.0682 14.9531 23.0682C10.2077 23.0682 6.38495 19.2455 6.38495 14.5C6.38495 9.75455 10.2077 5.93182 14.9531 5.93182C16.9963 5.93182 18.8418 6.65682 20.2918 7.84318L24.51 3.625C21.9395 1.38409 18.644 0 14.9531 0C6.91222 0 0.453125 6.45909 0.453125 14.5C0.453125 22.5409 6.91222 29 14.9531 29C22.2031 29 28.794 23.7273 28.794 14.5C28.794 13.6432 28.6622 12.7205 28.4645 11.8636Z" fill="white"/>
</mask>
<g mask="url(#mask2_1_31)">
<path d="M-0.865051 23.0681L18.9077 7.90904L24.1145 8.56813L30.7713 -1.31824V30.3181H-0.865051V23.0681Z" fill="#34A853"/>
</g>
<mask id="mask3_1_31" style="mask-type:luminance" maskUnits="userSpaceOnUse" x="0" y="0" width="29" height="29">
<path d="M28.4645 11.8636H14.9531V17.4659H22.7304C22.0054 21.025 18.9736 23.0682 14.9531 23.0682C10.2077 23.0682 6.38495 19.2455 6.38495 14.5C6.38495 9.75455 10.2077 5.93182 14.9531 5.93182C16.9963 5.93182 18.8418 6.65682 20.2918 7.84318L24.51 3.625C21.9395 1.38409 18.644 0 14.9531 0C6.91222 0 0.453125 6.45909 0.453125 14.5C0.453125 22.5409 6.91222 29 14.9531 29C22.2031 29 28.794 23.7273 28.794 14.5C28.794 13.6432 28.6622 12.7205 28.4645 11.8636Z" fill="white"/>
</mask>
<g mask="url(#mask3_1_31)">
<path d="M30.7713 30.3183L10.3395 14.5001L7.70312 12.5228L30.7713 5.93188V30.3183Z" fill="#4285F4"/>
</g>
</g>
<defs>
<clipPath id="clip0_1_31">
<rect width="29" height="29" fill="white"/>
</clipPath>
</defs>
</svg>
