<svg width="25" height="20" viewBox="0 0 25 20" fill="none" xmlns="http://www.w3.org/2000/svg">
<path d="M9.24603 8.55988L12.4999 5.05471L15.7557 8.56132L17.6491 6.52176L12.4999 0.975586L7.3527 6.52031L9.24603 8.55988ZM4.12231 10.0002L6.01564 7.96064L7.90897 10.0002L6.01564 12.0398L4.12231 10.0002ZM9.24603 11.4405L12.4999 14.9457L15.7551 11.4391L17.6497 13.4772L17.6491 13.4787L12.4999 19.0248L7.3527 13.4801L7.35002 13.4772L9.24603 11.4405ZM17.0908 10.0009L18.9841 7.96136L20.8774 10.0009L18.9841 12.0405L17.0908 10.0009Z" fill="#F3BA2F"/>
<path d="M14.4199 9.99957H14.4206L12.4998 7.92969L11.0796 9.45882L10.9168 9.63426L10.5803 9.99669L10.5776 9.99957L10.5803 10.0025L12.4998 12.0709L14.4213 10.001L14.4219 9.99957H14.4199Z" fill="#F3BA2F"/>
</svg>
