<svg width="25" height="25" viewBox="0 0 25 25" fill="none" xmlns="http://www.w3.org/2000/svg">
<path d="M10.6771 10.4479C10.6771 11.0104 10.8334 11.0937 11.1875 11.2187L11.7188 11.4062V9.63538H11.4063C11.0105 9.63538 10.6771 9.99996 10.6771 10.4479Z" fill="#EBEBEB"/>
<path d="M13.2812 15.3654H13.5938C14 15.3654 14.3229 15.0009 14.3229 14.5529C14.3229 13.9904 14.1667 13.9071 13.8125 13.7821L13.2812 13.5946V15.3654Z" fill="#EBEBEB"/>
<path d="M20.3959 5.70837L18.2605 7.84379C18.1042 8.00004 17.9063 8.07296 17.7084 8.07296C17.5105 8.07296 17.3125 8.00004 17.1563 7.84379C16.8542 7.54171 16.8542 7.04171 17.1563 6.73962L19.2917 4.60421C17.4584 3.04171 15.0938 2.08337 12.5 2.08337C6.75004 2.08337 2.08337 6.75004 2.08337 12.5C2.08337 18.25 6.75004 22.9167 12.5 22.9167C18.25 22.9167 22.9167 18.25 22.9167 12.5C22.9167 9.90629 21.9584 7.54171 20.3959 5.70837ZM14.323 12.3125C14.9896 12.5521 15.8855 13.0313 15.8855 14.5625C15.8855 15.8646 14.8542 16.9375 13.5938 16.9375H13.2813V17.198C13.2813 17.625 12.9271 17.9792 12.5 17.9792C12.073 17.9792 11.7188 17.625 11.7188 17.198V16.9375H11.6355C10.25 16.9375 9.11462 15.7709 9.11462 14.3334C9.11462 13.8959 9.46879 13.5417 9.89587 13.5417C10.323 13.5417 10.6771 13.8959 10.6771 14.323C10.6771 14.8959 11.1042 15.3646 11.6355 15.3646H11.7188V13.0521L10.6771 12.6875C10.0105 12.448 9.11462 11.9688 9.11462 10.4375C9.11462 9.13546 10.1459 8.06254 11.4063 8.06254H11.7188V7.81254C11.7188 7.38546 12.073 7.03129 12.5 7.03129C12.9271 7.03129 13.2813 7.38546 13.2813 7.81254V8.07296H13.3646C14.75 8.07296 15.8855 9.23962 15.8855 10.6771C15.8855 11.1042 15.5313 11.4584 15.1042 11.4584C14.6771 11.4584 14.323 11.1042 14.323 10.6771C14.323 10.1042 13.8959 9.63546 13.3646 9.63546H13.2813V11.948L14.323 12.3125Z" fill="#EBEBEB"/>
<path d="M23.6354 1.78129C23.5521 1.59379 23.4063 1.43754 23.2083 1.35421C23.1146 1.32296 23.0208 1.30212 22.9167 1.30212H18.75C18.3229 1.30212 17.9688 1.65629 17.9688 2.08337C17.9688 2.51046 18.3229 2.86462 18.75 2.86462H21.0313L19.2917 4.60421C19.6875 4.94796 20.0521 5.31254 20.3958 5.70837L22.1354 3.96879V6.25004C22.1354 6.67712 22.4896 7.03129 22.9167 7.03129C23.3438 7.03129 23.6979 6.67712 23.6979 6.25004V2.08337C23.6979 1.97921 23.6771 1.88546 23.6354 1.78129Z" fill="#EBEBEB"/>
</svg>
