<svg width="32" height="25" viewBox="0 0 32 25" fill="none" xmlns="http://www.w3.org/2000/svg">
<path d="M11.8351 10.6996L16 6.31815L20.1675 10.7014L22.591 8.15195L16 1.21924L9.41163 8.15015L11.8351 10.6996ZM5.27673 12.5L7.7002 9.95056L10.1237 12.5L7.7002 15.0495L5.27673 12.5ZM11.8351 14.3004L16 18.6819L20.1667 14.2986L22.5918 16.8463L22.591 16.8481L16 23.7808L9.41163 16.8499L9.4082 16.8463L11.8351 14.3004ZM21.8764 12.5009L24.2998 9.95146L26.7233 12.5009L24.2998 15.0504L21.8764 12.5009Z" fill="#F3BA2F"/>
<path d="M18.4578 12.4991H18.4587L16 9.91174L14.1822 11.8232L13.9738 12.0425L13.5431 12.4955L13.5397 12.4991L13.5431 12.5027L16 15.0883L18.4595 12.5009L18.4604 12.4991H18.4578Z" fill="#F3BA2F"/>
</svg>
