<svg width="27" height="25" viewBox="0 0 27 25" fill="none" xmlns="http://www.w3.org/2000/svg">
<g clip-path="url(#clip0_1_147)">
<path d="M19.8254 18.7534C18.5316 18.7534 17.479 17.7788 17.479 16.5808V12.9728C17.479 11.7748 18.5316 10.8003 19.8254 10.8003H25.9393C25.9764 10.8003 26.0132 10.8013 26.0498 10.8028V7.20863C26.0498 6.28345 25.2398 5.53345 24.2406 5.53345H1.80926C0.810004 5.53339 0 6.2834 0 7.20858V22.345C0 23.2702 0.810004 24.0203 1.80926 24.0203H24.2406C25.2398 24.0203 26.0498 23.2703 26.0498 22.345V18.7508C26.0132 18.7524 25.9764 18.7534 25.9393 18.7534H19.8254Z" fill="#777A89"/>
<path d="M25.9393 11.9907H19.8254C19.2397 11.9907 18.7648 12.4304 18.7648 12.9728V16.5809C18.7648 17.1233 19.2397 17.563 19.8254 17.563H25.9393C26.5251 17.563 27 17.1233 27 16.5809V12.9728C27 12.4304 26.5251 11.9907 25.9393 11.9907ZM21.9322 16.1943C21.0867 16.1943 20.4013 15.5597 20.4013 14.7768C20.4013 13.9939 21.0867 13.3593 21.9322 13.3593C22.7777 13.3593 23.4631 13.9939 23.4631 14.7768C23.4631 15.5597 22.7777 16.1943 21.9322 16.1943Z" fill="#777A89"/>
<path d="M21.0903 2.46489C20.6855 1.33051 19.3643 0.714737 18.1392 1.08952L8.94785 3.90116H21.6028L21.0903 2.46489Z" fill="#777A89"/>
</g>
<defs>
<clipPath id="clip0_1_147">
<rect width="27" height="25" fill="white"/>
</clipPath>
</defs>
</svg>
