<svg width="24" height="24" viewBox="0 0 24 24" fill="none" xmlns="http://www.w3.org/2000/svg">
<g clip-path="url(#clip0_98_141)">
<path fill-rule="evenodd" clip-rule="evenodd" d="M5.64957 6.26087L8.04216 8.65345C8.44966 9.06096 8.44966 9.72165 8.04216 10.1292C7.63465 10.5366 6.97396 10.5366 6.56645 10.1292L2.39254 5.95525C1.98504 5.54774 1.98504 4.88705 2.39254 4.47954L6.56645 0.305628C6.97396 -0.101876 7.63465 -0.101876 8.04216 0.305628C8.44966 0.713132 8.44966 1.37382 8.04216 1.78133L5.64957 4.17391H12C17.4748 4.17391 21.913 8.61213 21.913 14.087C21.913 19.5618 17.4748 24 12 24C6.52513 24 2.08691 19.5618 2.08691 14.087C2.08691 13.5106 2.5541 13.0435 3.13039 13.0435C3.70668 13.0435 4.17387 13.5106 4.17387 14.087C4.17387 18.4091 7.67773 21.913 12 21.913C16.3222 21.913 19.826 18.4091 19.826 14.087C19.826 9.76472 16.3222 6.26087 12 6.26087H5.64957ZM12.5217 9.3913V13.5652H14.6087C15.185 13.5652 15.6521 14.0324 15.6521 14.6087C15.6521 15.185 15.185 15.6522 14.6087 15.6522H11.4782C10.9019 15.6522 10.4347 15.185 10.4347 14.6087V9.3913C10.4347 8.815 10.9019 8.34783 11.4782 8.34783C12.0545 8.34783 12.5217 8.815 12.5217 9.3913Z" fill="#777A89"/>
</g>
<defs>
<clipPath id="clip0_98_141">
<rect width="24" height="24" fill="white"/>
</clipPath>
</defs>
</svg>
