<svg width="27" height="27" viewBox="0 0 27 27" fill="none" xmlns="http://www.w3.org/2000/svg">
<g clip-path="url(#clip0_1_155)">
<path d="M19.0367 15.1392L13.5 20.25L7.96331 15.1392C4.87912 17.1118 2.8125 20.6713 2.8125 24.75H24.1875C24.1875 20.6713 22.1209 17.1118 19.0367 15.1392Z" fill="#777A89"/>
<path d="M13.5 15.75C15.4969 15.75 17.2851 14.8781 18.5209 13.5C19.5924 12.3053 20.25 10.7314 20.25 9C20.25 5.27231 17.2277 2.25 13.5 2.25C9.77231 2.25 6.75 5.27231 6.75 9C6.75 10.7314 7.40756 12.3053 8.47913 13.5C9.71494 14.8781 11.5031 15.75 13.5 15.75Z" fill="#777A89"/>
</g>
<defs>
<clipPath id="clip0_1_155">
<rect width="27" height="27" fill="white"/>
</clipPath>
</defs>
</svg>
