<svg width="18" height="18" viewBox="0 0 18 18" fill="none" xmlns="http://www.w3.org/2000/svg">
<path d="M3 7.5L2.29289 8.20711L1.58579 7.5L2.29289 6.79289L3 7.5ZM16 13.5C16 14.0523 15.5523 14.5 15 14.5C14.4477 14.5 14 14.0523 14 13.5L16 13.5ZM6.04289 11.9571L2.29289 8.20711L3.70711 6.79289L7.45711 10.5429L6.04289 11.9571ZM2.29289 6.79289L6.04289 3.04289L7.45711 4.45711L3.70711 8.20711L2.29289 6.79289ZM3 6.5L9 6.5L9 8.5L3 8.5L3 6.5ZM9 6.5C12.866 6.5 16 9.63401 16 13.5L14 13.5C14 10.7386 11.7614 8.5 9 8.5L9 6.5Z" fill="white"/>
</svg>
