<svg width="50" height="50" viewBox="0 0 50 50" fill="none" xmlns="http://www.w3.org/2000/svg">
<g clip-path="url(#clip0_42_212)">
<path d="M2.71089 27.8624L21.5453 37.364L24.9078 27.8624L6.07495 18.8655L2.71089 27.8624ZM25.3296 27.8624L28.525 37.2796L48.0312 27.778L44.2468 18.8655L25.3296 27.8624ZM-0.385986 11.2687L6.08901 18.8358L24.9218 9.25146L18.7843 1.43115L-0.385986 11.2687ZM50.3859 11.4358L31.6343 1.43115L25.2437 9.25146L44.2468 18.8358L50.3859 11.4358ZM4.96089 30.239L4.89683 39.3624L24.7609 48.5702V31.414L21.9234 38.814L4.96089 30.239ZM25.4546 31.414V48.5686L45.2578 39.3608V30.2999L28.0859 38.8312L25.4546 31.414Z" fill="#2C3147"/>
</g>
<defs>
<clipPath id="clip0_42_212">
<rect width="50" height="50" fill="white"/>
</clipPath>
</defs>
</svg>
