<svg width="25" height="25" viewBox="0 0 25 25" fill="none" xmlns="http://www.w3.org/2000/svg">
<g clip-path="url(#clip0_45_46)">
<path d="M8.91746 12.3952C9.52766 13.0054 9.52766 13.9946 8.91746 14.6048L7.90197 15.6204H16.6667C17.5297 15.6204 18.2292 16.3199 18.2292 17.1829C18.2292 18.0458 17.5297 18.7454 16.6667 18.7454H7.90197L8.91746 19.7609C9.52766 20.3711 9.52766 21.3604 8.91746 21.9706C8.30727 22.5808 7.31795 22.5808 6.70775 21.9706L3.02491 18.2877C2.41471 17.6776 2.41471 16.6882 3.02491 16.078L6.70775 12.3952C7.31795 11.7849 8.30727 11.7849 8.91746 12.3952ZM16.0827 3.02015C16.6547 2.44809 17.56 2.41233 18.1737 2.91289L18.2924 3.02015L21.9752 6.70299C22.5473 7.27505 22.583 8.18032 22.0824 8.79403L21.9752 8.9127L18.2924 12.5956C17.6822 13.2058 16.6929 13.2058 16.0827 12.5956C15.5106 12.0235 15.4749 11.1182 15.9754 10.5045L16.0827 10.3859L17.0981 9.37035H8.3333C7.47036 9.37035 6.7708 8.67079 6.7708 7.80785C6.7708 6.99566 7.39048 6.32821 8.18282 6.2525L8.3333 6.24535H17.0981L16.0827 5.22986C15.4725 4.61966 15.4725 3.63034 16.0827 3.02015Z" fill="#EBEBEB"/>
</g>
<defs>
<clipPath id="clip0_45_46">
<rect width="25" height="25" fill="white"/>
</clipPath>
</defs>
</svg>
